<svg width="22" height="24" viewBox="0 0 22 24" fill="none" xmlns="http://www.w3.org/2000/svg">
<path d="M15.1796 2.70629e-06C15.689 -0.00119397 16.0919 0.394608 16.0931 0.922343L16.0942 1.82189C19.3998 2.08096 21.5834 4.33343 21.5869 7.7877L21.6 17.8986C21.6047 21.6647 19.2387 23.982 15.4462 23.988L6.18227 24C2.41344 24.0048 0.0177878 21.6324 0.0130487 17.8555L7.95287e-06 7.86326C-0.00472324 4.38621 2.10184 2.13973 5.40741 1.83629L5.40623 0.936736C5.40504 0.409 5.79602 0.0119994 6.31733 0.0119994C6.83864 0.0108 7.22962 0.406602 7.23081 0.934337L7.23199 1.77392L14.2697 1.76432L14.2685 0.924742C14.2673 0.397006 14.6583 0.00120482 15.1796 2.70629e-06ZM15.663 17.0303H15.6511C15.1061 17.0435 14.6689 17.5004 14.6808 18.0522C14.682 18.6039 15.1215 19.0585 15.6665 19.0704C16.2222 19.0692 16.6724 18.6123 16.6712 18.0486C16.6712 17.4848 16.2198 17.0303 15.663 17.0303ZM5.90028 17.0315C5.35528 17.0555 4.92875 17.5124 4.92994 18.0642C4.95482 18.6159 5.40504 19.0477 5.95005 19.0225C6.48439 18.9985 6.90973 18.5415 6.88485 17.9898C6.873 17.4501 6.43344 17.0303 5.90028 17.0315ZM10.7816 17.0255C10.2366 17.0507 9.81129 17.5064 9.81129 18.0582C9.83617 18.6099 10.2864 19.0405 10.8314 19.0165C11.3645 18.9913 11.7911 18.5355 11.7662 17.9826C11.7543 17.4441 11.3148 17.0243 10.7816 17.0255ZM5.89436 12.7136C5.34936 12.7376 4.92402 13.1946 4.9252 13.7463C4.9489 14.298 5.4003 14.7298 5.94531 14.7046C6.47846 14.6806 6.9038 14.2237 6.87892 13.672C6.86708 13.1322 6.4287 12.7124 5.89436 12.7136ZM10.7769 12.6717C10.2319 12.6956 9.80536 13.1526 9.80654 13.7043C9.83024 14.2561 10.2816 14.6866 10.8267 14.6627C11.3598 14.6375 11.7852 14.1817 11.7615 13.63C11.7484 13.0902 11.3101 12.6705 10.7769 12.6717ZM15.6582 12.6776C15.1132 12.6896 14.6867 13.1334 14.6879 13.6851V13.6983C14.6997 14.2501 15.15 14.6687 15.6962 14.6567C16.2293 14.6435 16.6546 14.1865 16.6428 13.6348C16.6179 13.107 16.1902 12.6765 15.6582 12.6776ZM14.272 3.6114L7.23436 3.62099L7.23555 4.5913C7.23555 5.10824 6.84575 5.51604 6.32444 5.51604C5.80313 5.51724 5.41097 5.11064 5.41097 4.5937L5.40978 3.67017C3.09943 3.90165 1.82104 5.25937 1.82459 7.86087L1.82578 8.23388L19.7635 8.20989V7.7901C19.7126 5.21139 18.4188 3.85847 16.0966 3.65697L16.0978 4.58051C16.0978 5.09625 15.6962 5.50525 15.1867 5.50525C14.6654 5.50645 14.2732 5.09865 14.2732 4.58291L14.272 3.6114Z" fill="#00295D"/>
</svg>
