<svg width="30" height="34" viewBox="0 0 30 34" fill="none" xmlns="http://www.w3.org/2000/svg">
<path d="M21.0828 0.333317C21.7903 0.331655 22.3498 0.881379 22.3515 1.61435L22.3531 2.86372C26.9442 3.22354 29.9769 6.35197 29.9819 11.1496L30 25.1925C30.0066 30.4233 26.7204 33.6416 21.453 33.65L8.58648 33.6667C3.352 33.6733 0.0247053 30.3783 0.0181231 25.1326L1.10457e-05 11.2545C-0.00656006 6.42527 2.91922 3.30517 7.5103 2.88371L7.50865 1.63434C7.507 0.901369 8.05004 0.349979 8.77408 0.349979C9.49812 0.348313 10.0411 0.898038 10.0428 1.631L10.0444 2.79709L19.819 2.78376L19.8173 1.61768C19.8157 0.884711 20.3587 0.334986 21.0828 0.333317ZM21.7541 23.9865H21.7377C20.9807 24.0048 20.3735 24.6395 20.39 25.4058C20.3916 26.172 21.0021 26.8034 21.7591 26.8201C22.5308 26.8184 23.1562 26.1837 23.1545 25.4008C23.1545 24.6178 22.5276 23.9865 21.7541 23.9865ZM8.19484 23.9881C7.43789 24.0215 6.8455 24.6561 6.84714 25.4224C6.8817 26.1887 7.50701 26.7884 8.26396 26.7534C9.0061 26.7201 9.59685 26.0854 9.56229 25.3191C9.54584 24.5695 8.93534 23.9865 8.19484 23.9881ZM14.9745 23.9798C14.2175 24.0148 13.6268 24.6478 13.6268 25.4141C13.6613 26.1804 14.2867 26.7784 15.0436 26.7451C15.7841 26.7101 16.3765 26.0771 16.3419 25.3091C16.3255 24.5612 15.715 23.9781 14.9745 23.9798ZM8.18662 17.9911C7.42966 18.0245 6.83891 18.6591 6.84056 19.4254C6.87347 20.1917 7.50042 20.7914 8.25737 20.7564C8.99787 20.7231 9.58862 20.0884 9.55406 19.3221C9.53761 18.5725 8.92876 17.9895 8.18662 17.9911ZM14.9679 17.9328C14.211 17.9662 13.6186 18.6008 13.6202 19.3671C13.6531 20.1334 14.2801 20.7314 15.037 20.6981C15.7775 20.6631 16.3683 20.0301 16.3354 19.2638C16.3173 18.5142 15.7084 17.9312 14.9679 17.9328ZM21.7476 17.9412C20.9906 17.9578 20.3982 18.5742 20.3999 19.3405V19.3588C20.4163 20.1251 21.0416 20.7065 21.8002 20.6898C22.5407 20.6715 23.1315 20.0368 23.115 19.2705C23.0805 18.5375 22.4864 17.9395 21.7476 17.9412ZM19.8223 5.34914L10.0477 5.36247L10.0494 6.71013C10.0494 7.4281 9.50799 7.99448 8.78395 7.99448C8.05991 7.99615 7.51523 7.43143 7.51523 6.71346L7.51359 5.43077C4.30477 5.75227 2.52923 7.638 2.53415 11.2512L2.53581 11.7693L27.4494 11.7359V11.1529C27.3786 7.57136 25.5817 5.6923 22.3564 5.41244L22.3581 6.69513C22.3581 7.41144 21.8002 7.97949 21.0926 7.97949C20.3686 7.98116 19.8239 7.41477 19.8239 6.69847L19.8223 5.34914Z" fill="#00295D"/>
</svg>
