<svg width="240" height="46" viewBox="0 0 240 46" fill="none" xmlns="http://www.w3.org/2000/svg">
<path fill-rule="evenodd" clip-rule="evenodd" d="M206.906 6.40801C209.591 6.95673 209.591 7.56126 212.666 8.296C215.155 8.83542 218.327 9.34695 219.108 10.0073C219.987 10.1747 220.622 10.2305 221.403 10.37C223.745 11.1605 227.455 11.8488 229.114 12.7509C227.845 13.1043 229.456 13.5321 231.018 14.3785C232.726 15.2992 233.556 16.3037 234.63 17.2988C235.704 18.2847 237.07 19.2612 237.07 20.1541C235.557 20.6377 236.534 21.9211 236.045 22.814C234.484 22.8977 233.995 23.0465 233.117 22.6559C233.215 20.461 231.653 17.9592 227.553 15.4573C226.528 15.2806 225.503 15.0202 224.575 14.5087C222.428 14.1646 221.842 13.4484 220.378 12.8811C219.987 12.3324 218.083 11.6721 216.033 11.0396C213.983 10.3979 211.641 9.82127 211.152 9.37485C206.516 8.4169 207.296 8.05418 202.66 7.22645C200.365 6.82653 196.412 6.16619 194.167 5.94298C192.117 5.72907 190.311 5.65467 188.407 5.39426C184.942 4.94784 182.355 4.54792 180.158 4.07359C176.741 3.81318 175.814 3.36676 173.276 3.08775C169.957 2.75293 164.783 2.69713 160.195 2.53902C156.925 2.44602 154.289 2.29721 151.214 2.25071C149.994 2.20421 149.994 2.0833 149.017 2.0275C145.65 1.93449 141.55 1.81359 138.572 1.81359C137.449 1.79499 136.132 1.89729 134.619 1.90659C133.057 1.93449 131.251 1.90659 129.884 1.94379C128.664 1.9996 127.395 2.1019 125.101 2.1019C120.757 2.1298 116.51 2.1019 113.191 1.90659C110.311 2.0275 107.139 1.88799 104.844 1.91589C103.087 1.95309 102.014 2.0833 100.256 2.1484C98.8897 2.20421 97.9135 2.1763 96.4492 2.20421C95.8147 2.24141 95.3266 2.32511 94.5456 2.38091C93.2277 2.43672 91.4218 2.41812 90.4456 2.48322C88.3956 2.59482 86.5408 2.78083 84.4908 2.90174C82.9777 2.98544 81.1717 2.98544 79.6098 3.07845C77.5598 3.21795 75.5097 3.42256 73.6062 3.58067C71.4097 3.73878 69.3597 3.79458 67.2121 3.96199C66.1382 4.04569 64.918 4.2038 63.6977 4.33401C61.9406 4.50142 59.7441 4.66882 58.231 4.89203C55.4977 5.26405 51.2024 5.77558 47.9322 6.3057C45.7357 6.94743 42.6607 7.49616 40.0738 8.12859C37.4868 8.76102 35.4368 9.50505 32.557 10.1654C28.4082 11.0861 22.8927 11.6907 19.8177 12.8811C19.1343 13.1601 18.8903 13.467 18.4998 13.774C16.9867 14.6575 16.4498 15.4573 15.9617 16.2944C15.5712 17.1407 15.1807 18.0057 14.3998 19.038C14.3998 19.2612 13.814 19.0659 13.6676 19.1868C13.3747 19.3356 14.3998 19.1868 14.2533 19.3263C13.4724 19.8937 12.1057 20.1913 11.6664 20.8237C11.0807 21.8281 12.3497 23.1023 13.6676 24.2928C14.9367 25.4832 15.9617 26.5807 14.3998 27.5479C15.5712 28.3292 16.6938 29.4359 16.1081 30.0032C18.695 30.9147 19.6712 31.7052 20.9403 32.6167C23.3808 32.9794 26.2118 33.556 28.5058 34.3372C29.2868 34.5698 29.1403 34.7558 29.6284 34.9883C30.8487 35.4719 32.6058 35.9183 32.3618 36.2066C33.9237 36.4298 34.4606 36.681 35.9737 37.0065C36.7547 37.1553 37.2428 37.0251 38.0237 37.0344C39.244 37.3413 38.0237 37.4901 38.0237 37.7319C39.0976 38.0202 40.6107 38.1504 41.9773 38.4108C42.3678 38.3457 41.4404 38.1969 42.1238 38.1504C42.9047 38.3178 42.7583 38.4201 43.4416 38.5689C45.1012 38.634 47.4441 39.0247 49.0548 39.3316C49.2012 39.4711 50.1286 39.6199 49.5917 39.7315C51.5441 40.0291 53.2036 40.1872 54.2286 40.4941C57.4501 40.801 61.4037 40.9127 65.2597 41.201C68.5787 41.4521 72.1907 41.7869 75.5097 41.9357C78.0967 42.0566 81.9526 42.1775 85.9551 42.4565C90.4456 42.7448 94.8873 43.4052 100.159 43.3773C102.746 43.5447 104.552 43.7307 106.358 43.9167C108.164 43.9353 109.189 43.833 111.629 43.8888C114.802 43.7121 119.195 43.554 123.636 43.4517C128.176 43.368 133.057 43.3215 137.157 43.4517C140.769 43.2099 144.136 43.3029 146.967 43.3773C149.994 43.0518 154.387 42.7262 158.731 42.4565C162.879 42.1775 167.077 41.945 170.299 41.8892C175.277 41.1824 180.061 40.4941 186.357 39.5734C190.067 39.0247 194.557 38.5131 196.754 37.9644C198.12 37.6296 198.315 37.2111 199.584 36.7926C200.609 36.4019 202.415 35.8997 203.929 35.4533C205.979 34.8395 207.687 34.1884 209.688 33.6304C211.641 33.0724 213.447 33.0631 215.741 32.5702C216.814 31.8726 218.572 31.5099 220.475 31.1472C222.281 30.7659 224.233 30.3753 224.722 29.6498C225.503 29.6777 226.039 29.408 226.381 29.1104C230.92 28.5152 230.92 26.7202 231.653 25.446C232.189 25.4646 232.189 25.2042 232.97 25.2972C233.507 24.8043 232.97 24.5346 233.215 24.0509C233.703 24.1068 234.24 24.1347 234.63 24.237C234.923 24.1161 235.265 24.023 235.411 23.9021C236.436 23.9579 237.217 24.3858 238.437 24.3486C238.73 24.1068 238.437 23.2418 238.876 22.9163C240.926 23.6789 239.657 25.2786 239.023 26.5156C238.584 27.1573 238.876 27.6502 238.73 28.1803C237.607 28.3757 237.07 28.7756 235.704 29.222C234.776 29.501 233.703 29.7428 233.507 29.9288C232.97 30.338 234.484 30.3939 234.24 30.8589C232.726 31.5657 231.409 31.6866 229.895 32.3469C226.284 32.5888 223.062 33.9094 222.964 34.7279C220.914 35.3138 219.108 35.2301 216.961 35.7602C216.522 35.9183 216.277 35.8067 216.033 35.7788C214.96 36.2438 214.081 36.681 214.764 36.9507C212.421 37.9923 205.49 38.6061 200.609 39.5176C199.829 39.6664 199.731 39.778 198.901 39.9547C196.754 40.4011 193.825 40.615 191.726 40.9406C188.163 41.5079 187.48 42.1775 185.186 42.7541C183.038 43.0146 181.671 43.0239 179.28 43.3215C177.718 43.2006 172.641 43.6284 168.737 44.0748C166.833 44.2794 166.687 44.5119 164.637 44.6142C161.562 44.7909 159.268 44.3445 155.656 44.5119C153.703 44.577 152.727 44.763 150.775 44.8932C147.163 45.1072 144.136 45.0979 140.476 45.0234C136.278 45.1537 130.372 45.1165 128.176 45.3397C120.757 45.3955 115.339 45.7117 110.702 45.9907C104.308 46.0372 101.721 45.3955 96.5956 45.0793C95.3754 45.0979 94.5456 45.1537 93.7646 45.2095C87.6146 44.9211 82.9777 44.6607 80.1467 43.8888C76.0467 43.6563 73.9966 43.647 69.8478 43.2936C71.1657 43.2657 68.0906 42.8564 67.3097 42.7727C65.6501 42.6239 61.7942 42.6239 59.7441 42.5402C58.5727 42.503 57.0596 42.3077 56.7667 42.4193C55.7417 42.2612 54.4727 42.0752 53.5453 41.8985C52.4227 41.7869 52.0322 41.9078 51.1048 41.8241C49.8357 41.4056 46.2726 40.8569 44.125 40.8569C38.6583 39.9547 35.1928 39.7687 31.3368 39.4153C28.5058 38.9038 27.9201 38.5596 25.9677 38.0667C27.2368 37.8807 24.6986 37.3413 24.1617 36.9786C23.3808 36.7461 22.6486 36.7461 21.8677 36.6344C19.8177 35.9741 17.7676 35.4533 15.9617 34.8395C14.3998 34.3 12.3497 33.6118 10.8366 33.1282C10.0557 32.9143 8.98186 32.7748 8.24971 32.5051C4.39373 31.2123 4.88183 30.3194 5.56517 29.4359C4.63778 28.8221 3.12467 28.4129 2.58776 27.8734C1.56275 26.9434 3.12467 26.2366 3.61277 25.5669C2.58776 24.5997 1.17228 23.8556 0.391317 22.9256C0.293697 22.6838 -0.0479721 22.3118 0.000837754 22.07C0.147267 21.856 0.684176 21.7537 1.07466 21.5305C1.17228 21.391 0.928226 21.2329 1.07466 21.0376C1.56275 20.6935 2.58776 20.5075 2.83181 20.2378C3.12467 19.875 3.36872 19.3356 3.36872 19.038C3.90563 18.2847 3.36872 17.5778 4.05206 16.7315C5.80922 15.8294 6.05326 14.89 7.85923 13.8577C8.24971 13.9321 8.00566 14.0995 8.78662 14.1367C10.5438 13.774 11.2271 13.188 11.9593 12.6393C12.5938 12.0999 13.4724 11.5977 15.7176 11.486C17.2307 10.8536 19.5248 10.4816 21.3308 9.94217C23.5272 9.32835 26.7487 8.10999 29.8237 7.54266C30.7023 7.38455 31.6296 7.31945 32.557 7.17064C34.4606 6.70562 38.0237 5.93368 41.0011 5.58957C41.6357 5.66397 40.0738 5.93368 41.4404 5.86858C46.2726 5.27335 49.3476 4.78043 53.6917 4.1573C55.3024 3.94339 57.6941 3.73878 58.8168 3.57137C60.037 3.40396 60.3787 3.16215 61.6477 3.01334C63.4537 2.78083 65.5037 2.78083 67.4073 2.65063C70.1407 2.47392 72.1907 2.20421 74.7288 2.0833C75.5097 2.1019 74.7288 2.20421 75.5097 2.25071C77.7062 2.1298 78.4871 2.1763 80.5372 2.1019C81.0741 2.0833 81.1717 2.0275 81.6598 2.0182C85.0277 1.9996 88.8837 1.55317 94.6432 1.21836C94.8873 1.02305 97.1325 0.911444 98.548 0.688233C103.283 0.678932 111.971 0.437121 118.902 0.344116C119.976 0.316215 120.464 0.223211 121.391 0.167408C123.051 0.195309 124.954 0.0930044 126.126 0C130.518 0.102305 133.838 -0.0465022 137.645 0.0279013C139.207 0.0465022 140.866 0.139507 142.526 0.195309C150.921 0.399919 159.512 0.390619 167.224 0.83704C168.737 0.930044 170.787 1.06955 172.251 1.21836C174.057 1.39507 176.986 1.90659 179.572 2.24141C183.38 2.71573 189.042 3.37606 193.044 3.96199C194.948 4.38051 195.484 4.72463 197.534 5.08734C199.829 5.50586 202.952 5.70117 205.246 6.2685C205.979 6.43591 206.369 6.3708 206.906 6.40801Z" fill="#FCC43E"/>
</svg>
