<svg width="32" height="32" viewBox="0 0 32 32" fill="none" xmlns="http://www.w3.org/2000/svg">
<path d="M14.48 2.122C14.3328 2.04147 14.1678 1.99927 14 1.99927C13.8322 1.99927 13.6672 2.04147 13.52 2.122L3.4 7.642C2.996 7.862 2.666 8.176 2.426 8.548L14 14.86L25.574 8.548C25.3304 8.16968 24.9954 7.85879 24.6 7.644L14.48 2.12V2.122ZM2 20V10.594L13.52 16.878C13.6672 16.9585 13.8322 17.0007 14 17.0007C14.1678 17.0007 14.3328 16.9585 14.48 16.878L26 10.594V20C26 21.0609 25.5786 22.0783 24.8284 22.8284C24.0783 23.5786 23.0609 24 22 24H6C4.93913 24 3.92172 23.5786 3.17157 22.8284C2.42143 22.0783 2 21.0609 2 20ZM6.536 26C6.88706 26.6081 7.392 27.113 8.00006 27.4641C8.60811 27.8151 9.29787 28 10 28H22C24.1217 28 26.1566 27.1571 27.6569 25.6569C29.1571 24.1566 30 22.1217 30 20V12C30 11.2979 29.8151 10.6081 29.4641 10.0001C29.113 9.392 28.6081 8.88706 28 8.536V20C28 21.5913 27.3679 23.1174 26.2426 24.2426C25.1174 25.3679 23.5913 26 22 26H6.536Z" fill="#00295D"/>
</svg>
