<svg width="35" height="35" viewBox="0 0 35 35" fill="none" xmlns="http://www.w3.org/2000/svg">
<g clip-path="url(#clip0_19_24)">
<path d="M4.02208 22.4233L6.20812 24.6094L3.6677 27.1483L1.55604 25.0367L-0.00146484 26.5927L8.40583 35L9.96187 33.444L7.8502 31.3323L10.3906 28.7919L12.5767 30.9779L31.4767 12.0779L31.6575 4.20438L34.9956 0.866253L34.8294 -0.67083L30.8073 3.35125L22.9337 3.53209L4.02208 22.4233ZM6.51291 22.4233L16.1146 12.8217L22.1637 18.8708L19.7225 21.315L16.6892 18.2817L15.4058 19.565L18.4392 22.5983L16.1787 24.8588L13.1454 21.8254L11.8621 23.1088L14.8954 26.1421L12.5708 28.4667L6.51291 22.4233Z" fill="#00295D"/>
</g>
<defs>
<clipPath id="clip0_19_24">
<rect width="35" height="35" fill="white" transform="translate(0 35) rotate(-90)"/>
</clipPath>
</defs>
</svg>
